<svg width="203" height="88" viewBox="0 0 203 88" fill="none" xmlns="http://www.w3.org/2000/svg">
<path fill-rule="evenodd" clip-rule="evenodd" d="M22.9798 0V4.5627H5.51515V16.0386C6.82828 15.9003 9.19192 15.7621 10.5051 15.7621C14.3131 15.7621 18.1212 16.5916 20.8788 18.6656C23.899 20.7395 26 24.0579 26 29.0354C26 33.045 24.6869 36.0868 22.5859 38.299C19.303 41.7556 13.7879 43 8.40404 43C4.72727 43 1.70707 42.7235 0 42.4469V0H22.9798ZM5.51515 38.299C6.69697 38.5756 8.14141 38.5756 9.84848 38.5756C13.1313 38.5756 16.4141 37.4695 18.3838 35.2572C19.697 33.7363 20.6162 31.6624 20.6162 29.0354C20.6162 25.717 19.303 23.5048 17.3333 22.1222C15.2323 20.6013 12.6061 20.0482 9.71717 20.0482C8.53535 20.0482 6.9596 20.1865 5.64646 20.3248V38.299H5.51515ZM149 0H154.397V27.6624L164.933 15.6115H171.872L160.821 28.2102L172 43H165.318L154.397 28.4841V43H149V0ZM203 15.8286H197.085V21.3524C195.958 19.5571 194.408 18.0381 192.437 16.7952C190.465 15.5524 188.493 15 186.239 15C182.718 15 179.62 16.381 176.944 19.281C174.268 22.181 173 25.4952 173 29.3619C173 33.3667 174.268 36.819 176.944 39.719C179.479 42.619 182.718 44 186.38 44C190.606 44 194.268 41.9286 197.085 37.7857V43.3095H203V15.8286ZM194.549 23.1476C196.38 24.9429 197.366 27.1524 197.366 29.6381C197.366 32.1238 196.38 34.1952 194.549 35.9905C192.718 37.7857 190.465 38.7524 187.93 38.7524C185.394 38.7524 183.141 37.7857 181.31 35.9905C179.479 34.1952 178.634 31.9857 178.634 29.3619C178.634 27.0143 179.62 24.9429 181.451 23.1476C183.282 21.3524 185.394 20.5238 187.93 20.5238C190.465 20.5238 192.718 21.3524 194.549 23.1476ZM32 15.6842V24.5789H32.1333V54H37.7333V39.2211H37.8667C39.4667 41.8211 42.5333 43.4632 46 43.4632C52.1333 43.4632 58 38.6737 58 28.8211C58 20.6105 53.2 15 46.8 15C42.4 15 39.3333 17.0526 37.3333 20.3368H37.2V15.6842H32ZM37.8667 33.8842C37.7333 33.2 37.6 32.5158 37.6 31.8316V27.1789C37.6 26.4947 37.7333 25.8105 37.8667 25.1263C38.8 21.4316 41.8667 18.9684 45.2 18.9684C50.2667 18.9684 53.0667 23.6211 53.0667 29.0947C53.0667 35.3895 50.1333 39.6316 45.0667 39.6316C41.6 39.6316 38.8 37.3053 37.8667 33.8842ZM123.397 27.4523V17H118V43H123.397V31.2412H135.603V43H141V17H135.603V27.4523H123.397ZM73 63V65.2881H65.9167V78H63V63H73ZM77.1339 69.0651C77.1339 66.8462 77.1339 65.071 77 63.4438H79.5446L79.6786 66.4024C80.8839 64.3314 82.7589 63 85.3036 63C89.0536 63 92 66.5503 92 71.8757C92 78.0888 88.5179 81.1953 84.7679 81.1953C82.625 81.1953 80.8839 80.1598 79.9464 78.5325V88H77.1339V69.0651ZM79.9464 73.6509C79.9464 74.0947 79.9464 74.5385 80.0804 74.9822C80.6161 77.2012 82.3571 78.6805 84.3661 78.6805C87.4464 78.6805 89.1875 75.8698 89.1875 71.8757C89.1875 68.3254 87.5804 65.3669 84.5 65.3669C82.4911 65.3669 80.75 66.8462 80.2143 69.3609C80.0804 69.8047 80.0804 70.2485 80.0804 70.6923V73.6509H79.9464ZM96.8899 63L100.468 73.1744C100.881 74.3372 101.294 75.6453 101.569 76.6628C101.844 75.6454 102.257 74.3373 102.67 73.0293L102.67 73.0291L105.835 63H109L104.596 75.2093C102.532 81.0233 101.018 84.0756 99.0917 85.9651C97.7156 87.2733 96.2018 87.8547 95.5138 88L94.8257 85.3837C95.5138 85.093 96.4771 84.657 97.4404 83.9302C98.2661 83.2035 99.2294 82.0407 99.9174 80.4419C100.055 80.1512 100.193 79.8605 100.193 79.7151C100.193 79.5698 100.193 79.2791 100.055 78.843L94 63H96.8899ZM124 78V63H112V78H114.598V65.161H121.402V78H124ZM142 63V78H139.402V65.161H132.598V78H130V63H142ZM64 26C64 11.7283 75.587 0 90 0C104.413 0 116 11.587 116 26C116 30.3027 114.947 34.3743 113.081 37.963L112.891 38.1522L113.033 37.4457L113.315 36.8804L112.891 37.4457L112.609 37.8696L112.326 38.2935L112.043 38.7174L111.902 39.2826L111.62 39.4239L111.337 39.8478L111.054 40.2717L110.913 40.6957L110.772 41.1196L110.207 41.5435L109.924 42.1087L109.641 42.5326L109.217 42.8152L108.652 43.0978L108.228 43.3804L107.804 43.663L107.38 43.9457L106.957 44.2283L106.674 44.6522L106.391 45.0761V45.3587L106.109 45.9239L105.685 46.3478L105.402 46.913L105.517 46.8558C101.192 50.0829 95.8272 52 90 52C85.1758 52 80.6683 50.6861 76.8058 48.4027L77 48.4674L77.4239 48.6087L77.9891 48.1848L77.8478 47.6196L78.1304 47.1957L77.9891 46.913L77.8478 46.4891L78.2717 46.2065L78.6956 46.0652L79.2609 45.9239L79.5435 45.5L79.2609 44.9348L79.1196 44.3696L78.9783 43.8043L78.6956 43.3804L78.5544 42.8152L78.2717 42.25L78.6956 41.8261L79.2609 41.5435L79.8261 41.4022L80.25 40.9783L80.6739 40.5543L81.2391 40.2717L81.8044 40.1304L82.2283 39.8478L82.3696 39.2826L82.6522 38.8587L82.9348 38.4348L83.3587 38.1522V37.587L83.0761 37.4457L82.7935 37.0217H82.2283L81.663 37.163H81.0978H80.5326L79.9674 36.7391L80.1087 36.3152L80.6739 36.4565L81.2391 36.3152L81.8044 36.1739L82.3696 36.0326H82.9348L83.5 35.8913L83.9239 35.6087L84.3478 35.3261L85.1956 35.4674L85.6196 35.3261L86.0435 35.1848L86.3261 34.7609L86.6087 34.337L87.0326 33.913L87.3152 33.4891L87.0326 33.0652L86.8913 32.6413L86.4674 32.2174L86.1848 31.6522H86.75L87.1739 31.9348L87.5978 32.0761L88.0217 32.3587L88.4456 32.2174L89.0109 32.0761H89.5761H90.1413L90.2826 32.2174L90.7065 32.5L91.1304 32.6413L91.413 33.0652L91.837 33.4891L92.2609 33.913L92.6848 33.7717L92.9674 34.0543L93.25 34.337L93.1087 34.9022V35.4674V36.0326L93.3913 36.3152L93.8152 36.5978V37.163L94.0978 37.587L94.3804 38.0109L94.663 38.4348L95.087 38.5761L95.3696 38.8587L95.7935 38.4348L96.2174 38.1522L96.5 37.7283L96.7826 37.3043V36.7391V36.1739V35.6087L97.0652 35.1848L97.4891 34.7609L97.913 34.4783L98.4783 34.337L98.9022 33.6304L99.4674 33.3478L99.75 32.9239L100.315 32.6413L100.88 32.3587L101.587 32.5L102.011 32.7826L102.293 33.2065L102.576 33.6304L102.859 34.0543H103.424L103.989 34.1957L104.272 34.6196V35.1848L104.13 35.75L103.989 36.3152L104.13 36.8804L104.272 37.4457L104.696 37.7283L104.837 38.2935L104.978 38.8587L104.554 38.5761L103.989 38.2935H103.565H103L102.859 38.5761L103.424 39L103.989 39.1413L103.848 39.5652L104.413 39.8478L104.554 40.2717L104.696 40.6957L105.12 40.837L105.685 40.9783H106.109L106.391 40.5543L106.674 40.1304L106.391 39.5652L105.826 39.2826L105.402 38.8587L105.685 38.5761L105.967 38.2935L105.826 37.7283L105.543 37.3043L105.261 36.8804L104.837 36.7391L104.413 36.4565L104.272 35.8913L104.413 35.3261L104.837 34.9022L105.261 35.1848L105.826 35.4674L106.391 35.6087L106.815 35.1848L107.098 34.6196L107.38 34.1957L107.522 33.6304V33.2065L107.38 32.7826L107.239 32.3587L106.674 31.9348L106.109 31.6522V31.087L106.25 30.663L106.391 30.0978L107.098 30.2391L107.522 29.8152L107.804 29.3913L108.087 28.9674L108.511 28.5435L108.652 27.9783L108.935 27.5543L109.076 26.9891L109.217 26.4239V25.8587V25.2935V24.7283V24.163L108.935 23.7391L108.511 23.4565L108.652 23.3152L108.511 22.8913L108.37 22.4674L108.511 22.0435L107.946 21.9022L107.38 22.0435L107.522 21.4783L107.946 21.337L108.37 21.0543L108.793 21.1957H109.076L109.359 21.7609L109.783 22.1848L110.207 21.6196L110.065 21.0543L109.924 20.4891L109.641 20.0652L109.359 19.6413V19.3587V18.7935L109.076 18.3696V17.8043L109.359 17.663V17.0978L109.217 16.5326V15.9674L108.935 15.2609L108.793 14.837L108.511 14.413L108.228 13.9891L108.087 13.4239L108.511 13.7065L108.793 14.1304L109.076 14.5543L109.5 14.837L109.359 14.413L109.076 14.1304L108.793 13.7065L108.511 13.2826L108.087 13L107.804 12.5761L107.38 12.4348V12.8587L106.815 12.7174L106.674 13.1413L106.391 12.7174L106.109 12.2935L105.967 11.7283L105.826 11.163V10.5978L105.685 10.0326V9.46739L105.967 9.32609L105.685 8.90217L105.402 8.47826V8.05435L105.12 7.48913L105.543 7.77174L105.826 8.19565L106.109 8.61957L106.391 9.04348L106.815 9.46739L107.239 9.8913L107.946 10.1739L108.652 10.4565L108.228 10.0326L107.804 9.6087L107.239 9.04348L106.815 8.61957L106.391 8.19565L106.109 7.77174L105.685 7.48913L105.402 7.20652L105.12 6.78261L104.837 6.3587L104.413 5.93478L103.989 5.36957L103.707 4.94565L103.141 4.80435L102.576 4.52174L102.152 4.09783L101.728 3.81522L101.587 3.53261L101.446 4.09783L101.587 4.66304L101.87 5.08696L102.293 5.51087L102.011 6.07609L101.728 6.21739L101.87 6.5L101.587 6.6413L101.728 6.92391L101.304 7.06522L101.022 7.34783L101.163 7.48913L100.88 7.91304L100.739 8.47826L100.598 9.04348H100.033L99.4674 9.18478L99.0435 9.46739L98.6196 9.75H98.337L98.0544 10.1739L97.6304 10.4565L97.4891 10.0326L97.3478 9.6087H96.9239H96.5L96.0761 9.75L95.6522 10.4565L95.087 10.5978H94.3804L94.0978 10.8804L93.5326 11.163L93.3913 11.587L93.1087 12.0109H92.9674L93.25 12.4348H92.6848L92.1196 12.5761L91.5544 12.4348V12.8587V13.2826L91.2717 12.5761L90.9891 12.0109L90.5652 12.5761L90.4239 13.1413L90.2826 13.7065H89.8587L89.2935 13.4239H88.8696L88.4456 13.5652H87.8804L87.4565 13.7065H86.8913H86.3261L85.6196 13.8478L85.0544 13.4239L84.6304 14.1304H84.2065L83.7826 14.2717L83.3587 14.5543H82.7935L82.5109 14.1304L82.3696 13.7065L82.6522 13.4239L83.0761 13.7065L83.6413 13.8478H84.2065V13.2826L83.7826 13L83.5 12.5761L83.0761 12.2935L82.7935 12.1522L82.5109 11.587L82.087 11.4457H81.5217H81.0978L80.6739 11.587H80.25L79.5435 11.8696H78.9783L78.413 12.0109L77.8478 12.2935H77.2826H76.7174L76.2935 12.7174L75.8696 13.1413V13.4239L76.2935 13.9891L76.1522 14.413L76.0109 14.837V15.2609L76.4348 15.5435L77 15.2609L77.5652 14.9783L77.9891 14.5543H78.1304V14.1304L78.2717 13.5652L78.6956 13.2826L79.1196 13L79.6848 12.8587H80.1087L79.9674 13.5652L79.5435 13.7065L79.1196 13.8478L78.837 14.5543L78.9783 14.9783L78.837 15.4022L78.5544 15.8261L78.1304 15.6848L77.8478 15.9674L77.5652 16.3913L77 16.25H76.2935L75.8696 15.9674L75.587 15.6848L75.3044 15.4022L75.7283 15.2609V14.6957L76.0109 14.1304L75.587 14.413L75.163 14.837L74.7391 15.2609L74.4565 14.9783L74.0326 15.1196L73.6087 14.9783L73.1848 15.1196L72.7609 15.4022H72.1956L71.913 15.2609H71.4891L71.3478 15.8261L71.2065 16.25L70.9239 16.6739L70.5 16.9565L70.0761 16.6739L69.6522 16.1087L69.2283 16.5326L68.8043 16.9565L68.5217 17.3804L68.3804 17.8043L68.2391 18.2283L68.3804 18.7935L68.5217 19.3587L68.9456 19.5H69.3696L69.7935 19.2174L70.2174 18.7935H70.6413L71.3478 18.5109L71.7717 18.7935L72.1956 18.9348L72.6196 19.0761V19.5L72.7609 20.0652L72.9022 20.6304L73.1848 21.0543L73.4674 21.6196L72.9022 22.0435V22.6087L73.3261 22.3261L73.6087 21.9022L73.75 22.1848V21.6196L73.6087 21.1957L73.4674 20.7717L73.1848 20.2065L73.3261 19.5L73.75 19.9239L73.8913 20.4891L74.1739 21.0543L74.3152 21.7609L73.8913 22.0435L74.0326 22.4674L74.1739 22.8913L74.0326 23.4565V24.163L74.4565 24.3043L74.5978 24.163L74.8804 24.3043L74.7391 23.7391L75.0217 23.8804V23.3152V22.75L75.4456 22.4674L75.8696 22.8913L76.4348 23.0326L76.1522 23.3152L76.0109 23.8804V24.4457V25.0109L76.4348 25.1522L76.8587 25.2935L77.2826 25.4348L77.7065 25.7174H78.2717V26.2826L78.1304 26.8478L77.7065 27.1304L77.4239 27.5543L77 27.413L76.2935 27.2717H75.7283L75.3044 26.9891L74.8804 26.7065L74.4565 26.1413L74.0326 25.7174L73.6087 25.4348H73.1848L72.7609 26L72.4783 25.5761L72.1956 25.1522L71.7717 24.7283L71.6304 24.163L71.2065 23.8804L70.9239 23.3152L71.0652 22.75L71.2065 22.1848V21.6196L70.7826 21.337L70.3587 21.0543L69.9348 20.6304L69.5109 20.2065L68.9456 20.0652H68.5217L68.3804 19.3587L67.8152 19.6413H67.1087L66.8261 20.0652L66.4022 20.4891H65.837L65.413 20.913L65.1304 21.4783L64.9891 22.0435L64.8478 22.6087L64.5652 23.3152L64.4239 23.7391L64.2826 24.3043V24.7283V25.2935V25.8587L64.4239 26.4239V26.9891L64.2826 27.5543V28.1196V28.6848L64.4239 29.25L64.5652 29.8152L64.7065 30.3804L64.9891 30.9457L65.413 31.3696L65.6957 31.9348L66.1196 32.3587L66.6848 32.5L66.9674 32.9239L67.1087 33.3478L67.3913 33.7717L67.8152 34.1957L68.0978 34.6196L68.2391 35.1848V35.75L68.0978 36.0326L68.2391 36.5978L68.5217 37.163L68.663 37.7283L68.9456 38.1522L69.087 38.7174L69.3696 39.1413L69.6522 39.5652L69.9348 39.9891V40.413V40.837L69.7935 41.1196L70.0761 41.6848V42.25L70.5 42.6739L70.9239 42.9565L71.2065 43.3804L71.4891 43.8043L71.7717 44.2283L72.0544 44.6522L72.3225 45.0544C67.1975 40.2925 64 33.4972 64 26ZM79.6848 2.54348L79.2609 2.68478L78.837 2.96739L79.4022 2.82609L79.9674 2.54348L80.5326 2.40217L81.2391 2.26087L81.9456 1.97826L82.3696 1.83696H82.7935L83.3587 1.69565L83.9239 1.55435L84.4891 1.41304L84.0652 1.69565L84.2065 1.83696L83.9239 2.11957L84.3478 2.54348L84.913 2.26087L85.4783 2.11957L86.0435 1.69565L86.6087 1.55435L87.0326 1.13043H86.3261L85.7609 1.27174L86.0435 1.41304L85.6196 1.55435L85.4783 1.27174L85.6196 1.13043H85.1956L85.6196 0.98913H86.1848L86.75 0.706522H86.8913H87.0326H87.3152L87.7391 0.565217H87.1739L87.4565 0.423913L86.8913 0.565217L86.1848 0.706522L85.6196 0.847826L85.0544 0.98913H84.6304H84.2065L84.7717 0.847826H85.337L85.7609 0.706522L86.1848 0.565217L86.75 0.423913L87.3152 0.282609H87.7391H88.3044H88.8696H89.1522H89.2935L89.8587 0.141304L90.4239 0.282609H90.5652H91.1304L91.2717 0.423913H91.1304H90.9891H90.7065H90.5652L90.9891 0.565217H90.5652L90 0.706522H90.5652L91.1304 0.565217H91.5544L91.9783 0.706522H92.4022L92.9674 0.847826H93.5326L93.9565 0.706522H94.5217L95.087 0.847826L95.5109 0.98913L96.0761 1.13043L96.6413 1.41304L97.0652 1.69565L97.4891 1.83696L98.0544 2.11957L98.4783 2.26087L98.9022 2.40217L99.3261 2.68478H99.8913L100.457 2.82609L101.022 3.1087L100.457 2.68478L101.022 2.82609L101.446 3.1087L101.87 3.3913L101.728 3.1087L101.163 2.82609L100.739 2.54348L100.315 2.40217L99.75 2.11957L99.1848 1.97826L98.7609 1.69565L98.337 1.55435L97.913 1.41304L97.3478 1.27174L96.9239 0.98913L96.3587 0.847826H95.7935L95.2283 0.706522H94.663L94.0978 0.565217H93.5326L92.9674 0.423913L92.6848 0.141304H92.1196H91.5544H90.9891H90.4239H89.8587H89.2935H88.7283H88.163H87.5978L87.0326 0.282609H86.4674L85.9022 0.423913H85.337L84.7717 0.565217V0.706522H84.2065L83.7826 0.847826H83.6413L83.2174 0.98913L82.6522 1.13043L82.2283 1.27174H82.6522L83.0761 1.13043L82.5109 1.41304H82.7935L82.2283 1.55435L81.663 1.83696H81.3804H80.8152L81.2391 1.55435L80.8152 1.69565L80.3913 1.83696L79.8261 2.11957L79.4022 2.26087L78.9783 2.54348L78.5544 2.96739L79.1196 2.68478L79.6848 2.54348ZM84.2065 0.98913L83.6413 1.13043L84.0652 0.98913H84.2065ZM89.1522 0.423913H89.4348L90 0.282609H89.7174L89.1522 0.423913ZM75.6349 4.42709L75.4457 4.52174L75.3381 4.62931C75.1384 4.76988 74.9388 4.92058 74.7391 5.08696L75.0217 4.94565L75.3381 4.62931C75.437 4.55964 75.536 4.49246 75.6349 4.42709ZM75.6349 4.42709L76.0109 4.23913L76.4348 3.95652L77 3.67391L77.5652 3.53261L77.8478 3.1087L77.4239 3.3913H77.2826C77 3.57971 76.7174 3.75241 76.4348 3.92512L76.4347 3.92517L76.4345 3.92526C76.168 4.08815 75.9015 4.25103 75.6349 4.42709ZM72.7609 13.8478L73.1848 13.5652L73.3261 13.1413L73.75 12.7174V12.2935L74.1739 12.1522L74.5978 12.0109L74.4565 12.2935L74.1739 12.7174L73.75 13.1413L73.4674 13.7065L73.3261 14.2717L73.0435 14.837L72.4783 14.9783H71.913V14.5543L72.337 14.1304L72.7609 13.8478ZM72.6196 13.2826L72.1956 13.4239L71.913 13.7065V13.2826L72.337 13L72.7609 12.7174L73.1848 12.5761L73.0435 13L72.6196 13.2826ZM111.62 35.4674L111.408 35.5734L111.478 35.4674L111.761 34.9022L111.62 35.4674ZM110.461 36.7109L110.348 37.163L110.207 37.7283L110.348 38.1522L110.772 38.0109L111.054 37.587L111.196 37.0217V36.4565L110.913 36.3152L111.196 35.8913L111.408 35.5734L111.054 35.75L110.772 36.1739L110.63 36.3859V35.8913L110.489 35.4674L110.772 35.1848L110.913 34.7609L110.489 34.4783H110.065L109.924 35.0435L109.641 35.4674L109.359 35.8913L108.935 36.4565L108.652 36.8804L108.228 37.163L107.946 37.4457L107.663 37.8696L107.522 38.2935L107.804 38.7174L108.37 38.8587L108.935 38.7174H109.5L109.641 38.2935L109.924 37.8696L110.065 37.3043L110.348 36.8804L110.461 36.7109ZM110.461 36.7109L110.489 36.5978L110.63 36.3859V36.4565L110.461 36.7109ZM93.6739 8.90217L94.0978 8.76087L94.3804 9.04348L94.663 9.46739H94.2391H93.6739V8.90217ZM88.7283 11.587L89.1522 11.4457L89.5761 11.163H90.1413V10.8804L89.5761 10.7391L89.0109 10.8804L88.587 11.163L88.0217 11.3043L87.5978 11.587L87.4565 12.0109L87.3152 12.5761L87.7391 12.7174L88.0217 13L88.163 12.7174L88.0217 12.2935L88.4456 11.8696L88.7283 11.587ZM75.3044 8.05435L75.0217 8.47826V8.90217H75.4456H75.8696L76.1522 8.19565L75.7283 7.77174L75.3044 8.05435ZM76.5761 4.52174L77 4.23913H77.4239L77.8478 3.95652L78.413 3.81522L78.5544 3.95652L78.9783 3.67391L79.4022 3.53261L79.5435 3.3913L80.1087 3.1087L80.5326 2.82609L80.9565 2.68478L81.3804 2.54348L81.8044 2.40217L81.9456 2.26087L82.3696 2.11957L82.7935 1.97826H83.2174H83.6413L83.3587 2.11957V2.54348L83.0761 2.82609L83.5 2.96739L83.2174 3.53261V3.67391L83.3587 3.81522L82.7935 4.38043V4.94565H82.2283V5.36957V5.79348H81.8044H81.2391L80.6739 5.65217V5.79348L80.25 5.93478L79.8261 6.07609L79.2609 6.3587L78.6957 6.5H78.2717L77.8478 6.78261L77.4239 6.92391H77L76.8587 6.5L76.5761 6.07609L76.0109 5.93478L76.1522 5.65217H75.7283L75.3044 5.93478L74.8804 6.07609L75.163 5.51087L75.7283 5.08696L76.1522 4.80435L76.5761 4.52174ZM83.7826 8.47826V8.05435L83.3587 7.91304L82.7935 8.05435L82.5109 8.47826L82.3696 8.90217H83.0761L83.6413 8.61957L83.7826 8.76087L84.4891 8.61957L84.0652 8.19565L83.7826 8.47826ZM95.5109 9.32609L94.8043 9.04348L94.9456 9.46739L95.5109 9.32609ZM110.913 38.7174L110.772 39.1413L110.489 39.5652L110.207 39.8478L110.348 39.4239L110.63 39L110.913 38.7174ZM111.902 33.0652L112.326 33.2065L112.467 32.6413V32.0761V31.6522H112.326L112.043 32.2174L111.902 32.7826L111.478 33.2065L111.902 33.0652ZM113.739 33.7717L114.163 34.0543L114.304 33.4891L114.587 32.9239L114.87 32.3587L115.011 32.2174L114.87 32.7826V32.9239C114.87 32.9946 114.834 33.1005 114.799 33.2065C114.764 33.3125 114.728 33.4185 114.728 33.4891L114.587 33.7717L114.446 34.337L114.163 34.9022H114.022V34.6196L113.457 35.0435L113.315 34.6196L113.457 34.1957L113.739 33.7717ZM110.065 15.9674L110.348 16.3913L110.489 15.9674V15.5435V15.1196L110.065 14.837H109.641L109.924 15.2609L110.065 15.9674ZM96.3587 38.1522L96.7826 38.0109L97.0652 38.4348V39L96.9239 39.4239L96.3587 39.5652V39.4239L96.0761 39V38.5761L96.3587 38.1522ZM110.065 26.5652L109.924 27.1304L110.065 27.6957H110.207L110.348 27.1304L110.207 26.5652H110.065ZM107.098 31.2283L107.38 30.8043L107.804 30.663V31.087L107.663 31.5109L107.098 31.2283ZM107.239 40.5543H106.674L106.25 40.9783H106.674H107.098L107.522 40.837L108.087 40.6957L108.652 40.413L109.076 39.9891H108.37L107.804 40.413L107.239 40.5543ZM111.337 18.5109L111.196 17.9457L110.913 17.2391L110.772 16.6739L110.913 16.5326L111.196 17.0978L111.337 17.663V18.087L111.478 18.6522V19.2174V19.6413L111.62 20.0652V20.6304L111.337 20.913L110.772 21.0543L110.913 20.4891L111.054 20.0652L111.337 19.6413V19.0761V18.5109ZM111.62 31.6522H111.478V32.0761L111.761 32.2174L111.62 31.6522ZM110.772 32.6413L110.489 33.0652L110.207 33.4891L110.348 32.9239L110.772 32.6413ZM110.489 30.9457L111.054 31.2283L111.761 30.9457L111.478 30.3804L111.196 29.8152L111.337 29.3913L111.196 28.9674L110.772 29.1087L110.63 29.6739L110.489 30.3804V30.9457ZM110.772 21.1957H111.196L111.054 21.9022L110.63 21.7609L110.772 21.1957ZM113.033 35.0435L112.609 35.4674V35.75L112.891 35.4674L113.033 35.0435ZM72.0544 19.6413H71.913L72.0544 19.3587V19.6413ZM72.1956 22.3261L72.337 22.75L72.7609 22.3261L72.6196 21.9022L72.1956 22.0435L72.0544 21.7609L71.913 22.0435L72.1956 22.3261ZM74.8804 25.0109V24.7283L75.163 25.0109H74.8804ZM71.7717 20.0652L71.4891 20.2065V20.6304V21.0543L71.7717 20.6304V20.0652ZM99.8913 7.63043L99.1848 7.34783L99.3261 7.06522H99.8913V7.63043ZM85.1956 32.0761L84.7717 31.9348H84.2065L83.9239 31.5109L83.6413 31.087L83.3587 30.663L83.0761 30.2391L82.7935 29.8152L83.0761 29.6739L83.5 29.5326L83.6413 29.9565L83.7826 30.3804L84.0652 30.663L84.3478 31.087H84.913L85.4783 31.2283L85.1956 32.0761ZM83.9239 22.75L83.7826 23.1739V23.7391L83.9239 24.3043L84.0652 24.8696L83.6413 25.1522L83.7826 25.7174L84.0652 26.2826L84.6304 26.4239L85.0544 26.2826V25.8587L84.913 25.4348L84.7717 25.0109L84.6304 24.587L84.4891 24.163V23.7391V23.3152L84.913 23.0326L85.337 22.6087L84.913 22.75L84.4891 22.6087L83.9239 22.75ZM80.9565 23.8804H80.25L79.8261 23.5978L79.2609 23.4565L78.837 23.3152L78.413 23.1739L77.8478 23.0326L77.2826 22.8913H76.7174L77.1413 22.6087L77.4239 22.1848L77.5652 21.7609L77.8478 21.337H78.2717L78.5544 21.4783L78.6957 21.9022L78.837 22.3261L78.5544 22.4674L78.9783 22.8913L79.6848 22.6087L79.1196 22.3261L79.5435 22.0435L80.1087 21.9022L80.5326 21.7609L80.3913 22.1848L79.9674 22.4674L80.25 22.8913L80.5326 23.1739L80.8152 23.5978L80.9565 23.8804ZM78.837 34.4783L79.1196 35.1848L79.9674 35.8913L79.8261 35.4674V34.9022V34.337L79.5435 33.6304L79.2609 33.2065L78.9783 32.7826L78.6956 32.3587L78.413 31.9348L78.2717 31.3696L78.1304 30.8043V30.2391L77.8478 29.8152L77.4239 29.5326L77 29.3913L77.1413 29.8152V30.2391L77.2826 30.8043L77.4239 31.2283L77.5652 31.6522L77.9891 31.7935L78.2717 32.2174L77.9891 32.6413L77.8478 33.2065L78.1304 33.6304L78.413 34.0543L78.837 34.4783ZM75.7283 40.5543L75.3044 39.9891L75.587 40.1304V39.9891L75.8696 40.2717L75.7283 40.5543ZM114.022 35.6087L113.739 36.0326V35.8913L114.022 35.6087ZM114.022 35.6087L114.163 35.1848H114.304L114.022 35.6087ZM113.739 36.0326L113.457 36.4565L113.315 37.0217L113.174 37.4457L113.315 37.163L113.739 36.3152V36.0326ZM82.6522 45.3587H83.0761L83.2174 45.9239L83.6413 46.3478L83.5 46.7717V47.337L83.0761 47.6196L82.7935 47.9022L83.0761 48.0435L82.7935 48.3261L82.2283 48.4674L81.663 48.3261L81.2391 48.0435L80.9565 47.7609V47.1957H81.2391L80.9565 46.6304L81.3804 46.0652H81.9456L82.3696 45.7826L82.6522 45.3587Z" fill="white"/>
</svg>
